<svg width="800" height="800" viewBox="0 0 32 32" data-name="Layer 1" id="Layer_1" xmlns="http://www.w3.org/2000/svg"><path d="M16 7a8.36 8.36 0 00-8 8 8.4 8.4 0 002.29 5.7A4.56 4.56 0 0112 24a1 1 0 001 1h6a1 1 0 001-1 4.46 4.46 0 011.69-3.28A7.87 7.87 0 0024 15a8.17 8.17 0 00-2.44-5.83A7.67 7.67 0 0016 7zm4.34 12.28A6.87 6.87 0 0018.09 23h-4.18a7 7 0 00-2.2-3.71A6.41 6.41 0 0110 15a6.29 6.29 0 016-6 5.63 5.63 0 014.13 1.6A6.16 6.16 0 0122 15a5.93 5.93 0 01-1.69 4.28zM19 26h-6a1 1 0 000 2h6a1 1 0 000-2zm-1 3h-4a1 1 0 000 2h4a1 1 0 000-2zM16 5a1 1 0 001-1V2a1 1 0 00-2 0v2a1 1 0 001 1zM5 14H3a1 1 0 000 2h2a1 1 0 000-2zm24 0h-2a1 1 0 000 2h2a1 1 0 000-2zm-3.1-8.9a1 1 0 00-1.41 0l-1.42 1.41a1 1 0 000 1.42 1 1 0 00.71.29 1 1 0 00.71-.29l1.41-1.42a1 1 0 000-1.41zM8.93 7.93a1 1 0 000-1.42L7.51 5.1A1 1 0 006.1 6.51l1.41 1.42a1 1 0 00.71.29 1 1 0 00.71-.29z" fill="#4d4d4d"/></svg>