<svg fill="#000" version="1.1" id="Capa_1" xmlns="http://www.w3.org/2000/svg" width="800" height="800" viewBox="0 0 48.832 48.832" xml:space="preserve"><g id="Layer_20_51_"><path d="M15.42 32.814h6.81v1.571h-6.81v1.295h21.418v-1.295h-7.94v-1.571h8.831v-3.587H15.42zM9.489 11.231h32.468v12.978h2.782V8.449H6.707v8.691h2.782z"/><path d="M0 39.799h14.523V18.013H0v21.786zm7.568-1.094a.7.7 0 11-.001-1.399.7.7 0 01.001 1.399zM2.1 20.113h10.325l-.001 16.072H2.1V20.113zm36.615 4.933v15.337h10.117V25.046H38.715zm5.264.634c.121 0 .22.101.22.221a.222.222 0 01-.22.222.224.224 0 01-.223-.222c0-.121.099-.221.223-.221zm-1.314.736h2.623v.212h-2.623v-.212zm1.226 13.305a.524.524 0 110-1.048.524.524 0 010 1.048zm3.478-1.806c-2.368.013-6.016.022-7.189.012V27.382l7.189-.001v10.534z"/></g></svg>