<svg xmlns="http://www.w3.org/2000/svg" width="30" height="30" version="1.1" id="svg822"><g id="layer1" transform="translate(0 -289.063)"><path d="M14.703 5.572a12 12 0 00-12 12 12 12 0 00.69 3.965 10.747 10.747 0 01-.295-2.443A10.747 10.747 0 0113.844 8.348a10.747 10.747 0 015.982 1.826l2.14-2.14a12 12 0 00-7.263-2.462zm9.149 3.604a1.152 1.152 0 00-.72.281l-9.193 7.781c-.422.358-1.416 1.412-.002 2.826 1.415 1.415 2.469.42 2.827-.003l7.783-9.19c.358-.423.392-1.022 0-1.414a.947.947 0 00-.695-.281zm1.85 3.607l-2.022 2.022A10.747 10.747 0 0124.586 19h2.016a12 12 0 00.101-1.428 12 12 0 00-1.002-4.789z" transform="translate(0 289.063)" id="path4625" opacity="1" fill="#000" fill-opacity="1" stroke="none" stroke-width="10" stroke-miterlimit="4" stroke-dasharray="none" stroke-opacity="1"/></g></svg>