<svg viewBox="0 0 800 800" xmlns="http://www.w3.org/2000/svg" xmlns:xlink="http://www.w3.org/1999/xlink"><style>:root&gt;svg{display:none}:root&gt;svg:target{display:block}</style><svg viewBox="0 0 32 32" data-name="Layer 1" id="bulb" xmlns="http://www.w3.org/2000/svg"><path d="M16 7a8.36 8.36 0 00-8 8 8.4 8.4 0 002.29 5.7A4.56 4.56 0 0112 24a1 1 0 001 1h6a1 1 0 001-1 4.46 4.46 0 011.69-3.28A7.87 7.87 0 0024 15a8.17 8.17 0 00-2.44-5.83A7.67 7.67 0 0016 7zm4.34 12.28A6.87 6.87 0 0018.09 23h-4.18a7 7 0 00-2.2-3.71A6.41 6.41 0 0110 15a6.29 6.29 0 016-6 5.63 5.63 0 014.13 1.6A6.16 6.16 0 0122 15a5.93 5.93 0 01-1.69 4.28zM19 26h-6a1 1 0 000 2h6a1 1 0 000-2zm-1 3h-4a1 1 0 000 2h4a1 1 0 000-2zM16 5a1 1 0 001-1V2a1 1 0 00-2 0v2a1 1 0 001 1zM5 14H3a1 1 0 000 2h2a1 1 0 000-2zm24 0h-2a1 1 0 000 2h2a1 1 0 000-2zm-3.1-8.9a1 1 0 00-1.41 0l-1.42 1.41a1 1 0 000 1.42 1 1 0 00.71.29 1 1 0 00.71-.29l1.41-1.42a1 1 0 000-1.41zM8.93 7.93a1 1 0 000-1.42L7.51 5.1A1 1 0 006.1 6.51l1.41 1.42a1 1 0 00.71.29 1 1 0 00.71-.29z" fill="#4d4d4d"/></svg><svg viewBox="0 0 496 512" id="github" xmlns="http://www.w3.org/2000/svg"><!--! Font Awesome Pro 6.2.1 by @fontawesome - https://fontawesome.com License - https://fontawesome.com/license (Commercial License) Copyright 2022 Fonticons, Inc.--><path d="M165.9 397.4c0 2-2.3 3.6-5.2 3.6-3.3.3-5.6-1.3-5.6-3.6 0-2 2.3-3.6 5.2-3.6 3-.3 5.6 1.3 5.6 3.6zm-31.1-4.5c-.7 2 1.3 4.3 4.3 4.9 2.6 1 5.6 0 6.2-2s-1.3-4.3-4.3-5.2c-2.6-.7-5.5.3-6.2 2.3zm44.2-1.7c-2.9.7-4.9 2.6-4.6 4.9.3 2 2.9 3.3 5.9 2.6 2.9-.7 4.9-2.6 4.6-4.6-.3-1.9-3-3.2-5.9-2.9zM244.8 8C106.1 8 0 113.3 0 252c0 110.9 69.8 205.8 169.5 239.2 12.8 2.3 17.3-5.6 17.3-12.1 0-6.2-.3-40.4-.3-61.4 0 0-70 15-84.7-29.8 0 0-11.4-29.1-27.8-36.6 0 0-22.9-15.7 1.6-15.4 0 0 24.9 2 38.6 25.8 21.9 38.6 58.6 27.5 72.9 20.9 2.3-16 8.8-27.1 16-33.7-55.9-6.2-112.3-14.3-112.3-110.5 0-27.5 7.6-41.3 23.6-58.9-2.6-6.5-11.1-33.3 2.6-67.9 20.9-6.5 69 27 69 27 20-5.6 41.5-8.5 62.8-8.5s42.8 2.9 62.8 8.5c0 0 48.1-33.6 69-27 13.7 34.7 5.2 61.4 2.6 67.9 16 17.7 25.8 31.5 25.8 58.9 0 96.5-58.9 104.2-114.8 110.5 9.2 7.9 17 22.9 17 46.4 0 33.7-.3 75.4-.3 83.6 0 6.5 4.6 14.4 17.3 12.1C428.2 457.8 496 362.9 496 252 496 113.3 383.5 8 244.8 8zM97.2 352.9c-1.3 1-1 3.3.7 5.2 1.6 1.6 3.9 2.3 5.2 1 1.3-1 1-3.3-.7-5.2-1.6-1.6-3.9-2.3-5.2-1zm-10.8-8.1c-.7 1.3.3 2.9 2.3 3.9 1.6 1 3.6.7 4.3-.7.7-1.3-.3-2.9-2.3-3.9-2-.6-3.6-.3-4.3.7zm32.4 35.6c-1.6 1.3-1 4.3 1.3 6.2 2.3 2.3 5.2 2.6 6.5 1 1.3-1.3.7-4.3-1.3-6.2-2.2-2.3-5.2-2.6-6.5-1zm-11.4-14.7c-1.6 1-1.6 3.6 0 5.9 1.6 2.3 4.3 3.3 5.6 2.3 1.6-1.3 1.6-3.9 0-6.2-1.4-2.3-4-3.3-5.6-2z"/></svg><svg viewBox="0 -2 44 44" id="linkedin" xmlns="http://www.w3.org/2000/svg"><path d="M44 40h-9.725V25.938c0-3.68-1.52-6.193-4.866-6.193-2.558 0-3.981 1.696-4.643 3.33-.249.586-.21 1.403-.21 2.22V40h-9.634s.124-24.909 0-27.173h9.634v4.265c.57-1.865 3.648-4.526 8.56-4.526C39.211 12.566 44 16.474 44 24.89V40zM5.18 9.428h-.063C2.013 9.428 0 7.351 0 4.718 0 2.034 2.072 0 5.239 0c3.164 0 5.11 2.029 5.171 4.71 0 2.633-2.007 4.718-5.23 4.718zm-4.07 3.399h8.576V40H1.11V12.827z" fill-rule="evenodd"/></svg><svg aria-hidden="true" data-prefix="fas" data-icon="phone" class="dsvg-inline--fa dfa-phone dfa-w-16" viewBox="0 0 512 512" id="phone" xmlns="http://www.w3.org/2000/svg"><path d="M493.4 24.6l-104-24c-11.3-2.6-22.9 3.3-27.5 13.9l-48 112c-4.2 9.8-1.4 21.3 6.9 28l60.6 49.6c-36 76.7-98.9 140.5-177.2 177.2l-49.6-60.6c-6.8-8.3-18.2-11.1-28-6.9l-112 48C3.9 366.5-2 378.1.6 389.4l24 104C27.1 504.2 36.7 512 48 512c256.1 0 464-207.5 464-464 0-11.2-7.7-20.9-18.6-23.4z"/></svg><svg viewBox="0 0 512 512" id="post" xmlns="http://www.w3.org/2000/svg"><!--! Font Awesome Pro 6.2.1 by @fontawesome - https://fontawesome.com License - https://fontawesome.com/license (Commercial License) Copyright 2022 Fonticons, Inc.--><path d="M48 64C21.5 64 0 85.5 0 112c0 15.1 7.1 29.3 19.2 38.4l217.6 163.2c11.4 8.5 27 8.5 38.4 0l217.6-163.2c12.1-9.1 19.2-23.3 19.2-38.4 0-26.5-21.5-48-48-48H48zM0 176v208c0 35.3 28.7 64 64 64h384c35.3 0 64-28.7 64-64V176L294.4 339.2a63.9 63.9 0 01-76.8 0L0 176z"/></svg><svg viewBox="0 0 48.832 48.832" id="responsive" xmlns="http://www.w3.org/2000/svg"><path d="M15.42 32.814h6.81v1.571h-6.81v1.295h21.418v-1.295h-7.94v-1.571h8.831v-3.587H15.42zM9.489 11.231h32.468v12.978h2.782V8.449H6.707v8.691h2.782z"/><path d="M0 39.799h14.523V18.013H0v21.786zm7.568-1.094a.7.7 0 11-.001-1.399.7.7 0 01.001 1.399zM2.1 20.113h10.325l-.001 16.072H2.1V20.113zm36.615 4.933v15.337h10.117V25.046H38.715zm5.264.634c.121 0 .22.101.22.221a.222.222 0 01-.22.222.224.224 0 01-.223-.222c0-.121.099-.221.223-.221zm-1.314.736h2.623v.212h-2.623v-.212zm1.226 13.305a.524.524 0 110-1.048.524.524 0 010 1.048zm3.478-1.806c-2.368.013-6.016.022-7.189.012V27.382l7.189-.001v10.534z"/></svg><svg aria-hidden="true" data-prefix="fab" data-icon="skype" class="gsvg-inline--fa gfa-skype gfa-w-14" viewBox="0 0 448 512" id="skype" xmlns="http://www.w3.org/2000/svg"><path d="M424.7 299.8c2.9-14 4.7-28.9 4.7-43.8 0-113.5-91.9-205.3-205.3-205.3-14.9 0-29.7 1.7-43.8 4.7C161.3 40.7 137.7 32 112 32 50.2 32 0 82.2 0 144c0 25.7 8.7 49.3 23.3 68.2-2.9 14-4.7 28.9-4.7 43.8 0 113.5 91.9 205.3 205.3 205.3 14.9 0 29.7-1.7 43.8-4.7 19 14.6 42.6 23.3 68.2 23.3 61.8 0 112-50.2 112-112 .1-25.6-8.6-49.2-23.2-68.1zm-194.6 91.5c-65.6 0-120.5-29.2-120.5-65 0-16 9-30.6 29.5-30.6 31.2 0 34.1 44.9 88.1 44.9 25.7 0 42.3-11.4 42.3-26.3 0-18.7-16-21.6-42-28-62.5-15.4-117.8-22-117.8-87.2 0-59.2 58.6-81.1 109.1-81.1 55.1 0 110.8 21.9 110.8 55.4 0 16.9-11.4 31.8-30.3 31.8-28.3 0-29.2-33.5-75-33.5-25.7 0-42 7-42 22.5 0 19.8 20.8 21.8 69.1 33 41.4 9.3 90.7 26.8 90.7 77.6 0 59.1-57.1 86.5-112 86.5z"/></svg><svg viewBox="0 0 30 30" id="speed" xmlns="http://www.w3.org/2000/svg"><path d="M14.703 5.572a12 12 0 00-12 12 12 12 0 00.69 3.965 10.747 10.747 0 01-.295-2.443A10.747 10.747 0 0113.844 8.348a10.747 10.747 0 015.982 1.826l2.14-2.14a12 12 0 00-7.263-2.462zm9.149 3.604a1.152 1.152 0 00-.72.281l-9.193 7.781c-.422.358-1.416 1.412-.002 2.826 1.415 1.415 2.469.42 2.827-.003l7.783-9.19c.358-.423.392-1.022 0-1.414a.947.947 0 00-.695-.281zm1.85 3.607l-2.022 2.022A10.747 10.747 0 0124.586 19h2.016a12 12 0 00.101-1.428 12 12 0 00-1.002-4.789z"/></svg><svg viewBox="0 0 512 512" id="sprint" xmlns="http://www.w3.org/2000/svg"><path d="M169.53 16.344L259.345 88 337 92.28l-1.03 18.657-161.376-8.906-118.78-4.905 227.28 68.03-197.72 246.75-14.53-17.655-49.22 96.625 248.69-202.78 51.81 11.592-38.78 40.594L270.5 329.5l-57.28 84.125L444.843 273.47 328 241.06l100.22-81.718c1.132.46 2.3.898 3.5 1.22 23.324 6.248 49.764-16.835 59.06-51.533 9.298-34.695-2.08-67.874-25.405-74.124-23.325-6.25-49.765 16.802-59.063 51.5a95.43 95.43 0 00-2.875 16.22L169.53 16.343z"/></svg><svg aria-hidden="true" data-prefix="fab" data-icon="telegram-plane" class="jsvg-inline--fa jfa-telegram-plane jfa-w-14" viewBox="0 0 448 512" id="telegram" xmlns="http://www.w3.org/2000/svg"><path d="M446.7 98.6l-67.6 318.8c-5.1 22.5-18.4 28.1-37.3 17.5l-103-75.9-49.7 47.8c-5.5 5.5-10.1 10.1-20.7 10.1l7.4-104.9 190.9-172.5c8.3-7.4-1.8-11.5-12.9-4.1L117.8 284 16.2 252.2c-22.1-6.9-22.5-22.1 4.6-32.7L418.2 66.4c18.4-6.9 34.5 4.1 28.5 32.2z"/></svg><svg aria-hidden="true" data-prefix="fab" data-icon="viber" class="ksvg-inline--fa kfa-viber kfa-w-16" viewBox="0 0 512 512" id="viber" xmlns="http://www.w3.org/2000/svg"><path d="M444 49.9C431.3 38.2 379.9.9 265.3.4c0 0-135.1-8.1-200.9 52.3C27.8 89.3 14.9 143 13.5 209.5c-1.4 66.5-3.1 191.1 117 224.9h.1l-.1 51.6s-.8 20.9 13 25.1c16.6 5.2 26.4-10.7 42.3-27.8 8.7-9.4 20.7-23.2 29.8-33.7 82.2 6.9 145.3-8.9 152.5-11.2 16.6-5.4 110.5-17.4 125.7-142 15.8-128.6-7.6-209.8-49.8-246.5zM457.9 287c-12.9 104-89 110.6-103 115.1-6 1.9-61.5 15.7-131.2 11.2 0 0-52 62.7-68.2 79-5.3 5.3-11.1 4.8-11-5.7 0-6.9.4-85.7.4-85.7-.1 0-.1 0 0 0-101.8-28.2-95.8-134.3-94.7-189.8 1.1-55.5 11.6-101 42.6-131.6 55.7-50.5 170.4-43 170.4-43 96.9.4 143.3 29.6 154.1 39.4 35.7 30.6 53.9 103.8 40.6 211.1zm-139-80.8c.4 8.6-12.5 9.2-12.9.6-1.1-22-11.4-32.7-32.6-33.9-8.6-.5-7.8-13.4.7-12.9 27.9 1.5 43.4 17.5 44.8 46.2zm20.3 11.3c1-42.4-25.5-75.6-75.8-79.3-8.5-.6-7.6-13.5.9-12.9 58 4.2 88.9 44.1 87.8 92.5-.1 8.6-13.1 8.2-12.9-.3zm47 13.4c.1 8.6-12.9 8.7-12.9.1-.6-81.5-54.9-125.9-120.8-126.4-8.5-.1-8.5-12.9 0-12.9 73.7.5 133 51.4 133.7 139.2zM374.9 329v.2c-10.8 19-31 40-51.8 33.3l-.2-.3c-21.1-5.9-70.8-31.5-102.2-56.5-16.2-12.8-31-27.9-42.4-42.4-10.3-12.9-20.7-28.2-30.8-46.6-21.3-38.5-26-55.7-26-55.7-6.7-20.8 14.2-41 33.3-51.8h.2c9.2-4.8 18-3.2 23.9 3.9 0 0 12.4 14.8 17.7 22.1 5 6.8 11.7 17.7 15.2 23.8 6.1 10.9 2.3 22-3.7 26.6l-12 9.6c-6.1 4.9-5.3 14-5.3 14s17.8 67.3 84.3 84.3c0 0 9.1.8 14-5.3l9.6-12c4.6-6 15.7-9.8 26.6-3.7 14.7 8.3 33.4 21.2 45.8 32.9 7 5.7 8.6 14.4 3.8 23.6z"/></svg><svg viewBox="0 0 448 512" id="whatsapp" xmlns="http://www.w3.org/2000/svg"><!--! Font Awesome Pro 6.2.1 by @fontawesome - https://fontawesome.com License - https://fontawesome.com/license (Commercial License) Copyright 2022 Fonticons, Inc.--><path d="M380.9 97.1C339 55.1 283.2 32 223.9 32c-122.4 0-222 99.6-222 222 0 39.1 10.2 77.3 29.6 111L0 480l117.7-30.9c32.4 17.7 68.9 27 106.1 27h.1c122.3 0 224.1-99.6 224.1-222 0-59.3-25.2-115-67.1-157zm-157 341.6c-33.2 0-65.7-8.9-94-25.7l-6.7-4-69.8 18.3L72 359.2l-4.4-7c-18.5-29.4-28.2-63.3-28.2-98.2 0-101.7 82.8-184.5 184.6-184.5 49.3 0 95.6 19.2 130.4 54.1 34.8 34.9 56.2 81.2 56.1 130.5 0 101.8-84.9 184.6-186.6 184.6zm101.2-138.2c-5.5-2.8-32.8-16.2-37.9-18-5.1-1.9-8.8-2.8-12.5 2.8-3.7 5.6-14.3 18-17.6 21.8-3.2 3.7-6.5 4.2-12 1.4-32.6-16.3-54-29.1-75.5-66-5.7-9.8 5.7-9.1 16.3-30.3 1.8-3.7.9-6.9-.5-9.7-1.4-2.8-12.5-30.1-17.1-41.2-4.5-10.8-9.1-9.3-12.5-9.5-3.2-.2-6.9-.2-10.6-.2-3.7 0-9.7 1.4-14.8 6.9-5.1 5.6-19.4 19-19.4 46.3 0 27.3 19.9 53.7 22.6 57.4 2.8 3.7 39.1 59.7 94.8 83.8 35.2 15.2 49 16.5 66.6 13.9 10.7-1.6 32.8-13.4 37.4-26.4 4.6-13 4.6-24.1 3.2-26.4-1.3-2.5-5-3.9-10.5-6.6z"/></svg></svg>